<?xml version="1.0" encoding="UTF-8"?>
<svg width="200px" height="200px" viewBox="0 0 200 200" version="1.1" xmlns="http://www.w3.org/2000/svg" xmlns:xlink="http://www.w3.org/1999/xlink" style="background: #FFFFFF;">
    <!-- Generator: Sketch 48.2 (47327) - http://www.bohemiancoding.com/sketch -->
    <title>avatar_wpgranada</title>
    <desc>Created with Sketch.</desc>
    <defs>
        <rect id="path-1" x="0" y="0" width="200" height="200"></rect>
    </defs>
    <g id="Page-1" stroke="none" stroke-width="1" fill="none" fill-rule="evenodd">
        <g id="avatar_wpgranada">
            <g id="Group-+-Oval-+-Shape-+-Oval-+-Shape-+-GRANADA-Mask-Copy">
                <mask id="mask-2" fill="white">
                    <use xlink:href="#path-1"></use>
                </mask>
                <g id="Mask"></g>
            </g>
            <g id="wordpress-logo-simplified" fill="#72BEC6" fill-rule="nonzero">
                <path d="M99.9994709,0 C44.8605548,0 0,44.8582011 0,99.9968254 C0,155.137566 44.8605548,200 99.9994709,200 C155.138387,200 200,155.136508 200,99.9968254 C200,44.8582011 155.138387,0 99.9994709,0 Z M10.0921169,99.9968254 C10.0921169,86.9619048 12.8889571,74.5873016 17.8773433,63.4063492 L60.7654009,180.911111 C30.7705332,166.340741 10.0921169,135.583069 10.0921169,99.9968254 Z M99.9994709,189.910053 C91.1750856,189.910053 82.656522,188.615873 74.5993365,186.246561 L101.578315,107.861376 L129.212324,183.574603 C129.394335,184.019048 129.617617,184.428571 129.855714,184.813757 C120.510691,188.102646 110.469368,189.910053 99.9994709,189.910053 Z M112.390013,57.8433862 C117.801681,57.5587302 122.680014,56.9883598 122.680014,56.9883598 C127.524484,56.4148148 126.953053,49.2952381 122.106466,49.578836 C122.106466,49.578836 107.543426,50.7216931 98.1423182,50.7216931 C89.308409,50.7216931 74.4638861,49.578836 74.4638861,49.578836 C69.6151831,49.2952381 69.0469262,56.7015873 73.8935127,56.9883598 C73.8935127,56.9883598 78.4797803,57.5587302 83.3242504,57.8433862 L97.3306737,96.2232804 L77.6522627,155.231746 L44.9134652,57.8433862 C50.330425,57.5587302 55.2024085,56.9883598 55.2024085,56.9883598 C60.0437039,56.4148148 59.4722723,49.2952381 54.6278023,49.578836 C54.6278023,49.578836 40.0679369,50.7216931 30.6657707,50.7216931 C28.9789893,50.7216931 26.990619,50.6804233 24.8794967,50.6126984 C40.9557723,26.2074074 68.5887227,10.0899471 99.9994709,10.0899471 C123.405944,10.0899471 144.717168,19.0391534 160.71302,33.6952381 C160.325716,33.6708995 159.946878,33.6222222 159.547934,33.6222222 C150.716141,33.6222222 144.449442,41.3164021 144.449442,49.578836 C144.449442,56.9883598 148.724596,63.2571429 153.281234,70.6666667 C156.7003,76.6539683 160.693972,84.3470899 160.693972,95.4624339 C160.693972,103.156614 157.734168,112.085714 153.852666,124.526984 L144.882248,154.488889 L112.390013,57.8433862 Z M178.894068,56.8645503 C185.912095,69.6698413 189.905767,84.3650794 189.905767,99.9968254 C189.905767,133.166138 171.93001,162.12381 145.200768,177.708995 L172.661231,98.3121693 C177.790359,85.4857143 179.498304,75.2296296 179.498304,66.1100529 C179.498304,62.8 179.280314,59.7280423 178.894068,56.8645503 Z" id="Shape"></path>
            </g>
        </g>
    </g>
</svg>